<svg xmlns="http://www.w3.org/2000/svg" viewBox="0 0 571 1000">
  <path fill="currentColor" transform="translate(0,850) scale(1,-1)"
    d="M393 149v-134q0-9-7-15t-15-7h-134q-9 0-16 7t-7 15v134q0 9 7 16t16 6h134q9 0 15-6t7-16z m176 335q0-30-8-56t-20-43-31-33-32-25-34-19q-23-13-38-37t-15-37q0-10-7-18t-16-9h-134q-8 0-14 11t-6 20v26q0 46 37 87t79 60q33 16 47 32t14 42q0 24-26 41t-60 18q-36 0-60-16-20-14-60-64-7-9-17-9-7 0-14 4l-91 70q-8 6-9 14t3 16q89 148 259 148 45 0 90-17t81-46 59-72 23-88z"/>
</svg>
