<svg xmlns="http://www.w3.org/2000/svg" viewBox="0 0 1000 1000">
  <path fill="currentColor" transform="translate(0,850) scale(1,-1)"
    d="M143 118v-107q0-7-5-13t-13-5h-107q-7 0-13 5t-5 13v107q0 7 5 12t13 6h107q7 0 13-6t5-12z m0 214v-107q0-7-5-13t-13-5h-107q-7 0-13 5t-5 13v107q0 7 5 13t13 5h107q7 0 13-5t5-13z m0 214v-107q0-7-5-12t-13-6h-107q-7 0-13 6t-5 12v107q0 8 5 13t13 5h107q7 0 13-5t5-13z m857-428v-107q0-7-5-13t-13-5h-750q-7 0-12 5t-6 13v107q0 7 6 12t12 6h750q7 0 13-6t5-12z m-857 643v-107q0-8-5-13t-13-5h-107q-7 0-13 5t-5 13v107q0 7 5 12t13 6h107q7 0 13-6t5-12z m857-429v-107q0-7-5-13t-13-5h-750q-7 0-12 5t-6 13v107q0 7 6 13t12 5h750q7 0 13-5t5-13z m0 214v-107q0-7-5-12t-13-6h-750q-7 0-12 6t-6 12v107q0 8 6 13t12 5h750q7 0 13-5t5-13z m0 215v-107q0-8-5-13t-13-5h-750q-7 0-12 5t-6 13v107q0 7 6 12t12 6h750q7 0 13-6t5-12z"/>
</svg>
