<svg xmlns="http://www.w3.org/2000/svg" viewBox="0 0 261.76 226.69">
    <path
      id="four"
      d="m 64.075094,58.758592 -7.524384,-10e-7 v 15.40648 H 50.623237 V 58.758592 l -18.995713,-10e-7 V 50.857835 L 48.132928,29.62966 h 8.417782 v 22.805961 h 7.524384 z M 50.623237,52.435621 V 35.644308 L 37.94818,52.435621 Z"
    />
    <g
      id="arrows"
      transform="matrix(1.093429,0,0,1.0934251,-6.0925447,-2.1540688)">
        <path
          id="l-arr"
          d="m 41.983692,7.9146425 -26.87525,2.2953685 10.598974,5.771746 c -9.270674,6.91929 -14.839264,15.644504 -16.7061878,26.174699 -1.9561242,11.033337 0.2735157,21.14135 6.6896538,30.322833 4.387345,6.247493 9.843496,10.812806 16.365718,13.70237 l 4.271328,-4.129148 C 29.778906,79.637349 24.378182,75.414188 20.132929,69.373609 14.574248,61.419145 12.636674,52.697564 14.318816,43.209611 15.746084,35.159226 19.65417,28.272121 26.04415,22.547275 l 2.767496,-2.122064 c 0.751424,1.615976 1.324922,5.590836 1.721587,11.925804 z"
        />
        <path
          id="r-arr"
          d="M 62.027046,87.966761 88.809233,84.763222 78.021006,79.353467 C 87.05223,72.124419 92.322359,63.215746 93.831854,52.628413 95.413484,41.535197 92.843057,31.508421 86.119877,22.549328 81.523635,16.453884 75.916108,12.075834 69.299832,9.4086401 L 65.170696,13.67996 c 6.626995,2.192159 12.167534,6.230126 16.614786,12.123592 5.824681,7.761799 8.056298,16.41281 6.696193,25.95226 -1.154019,8.094067 -4.826801,15.109485 -11.019387,21.047297 l -2.694102,2.214499 C 73.962503,73.42799 73.254837,69.474811 72.644004,63.156894 Z"
        />
    </g>
</svg>
